<?xml version="1.0" encoding="utf-8"?>
<!-- Generator: Adobe Illustrator 17.0.0, SVG Export Plug-In . SVG Version: 6.00 Build 0)  -->
<!DOCTYPE svg PUBLIC "-//W3C//DTD SVG 1.1//EN" "http://www.w3.org/Graphics/SVG/1.1/DTD/svg11.dtd">
<svg version="1.1" id="图层_1" xmlns="http://www.w3.org/2000/svg" xmlns:xlink="http://www.w3.org/1999/xlink" x="0px" y="0px"
	 width="960px" height="560px" viewBox="0 0 960 560" enable-background="new 0 0 960 560" xml:space="preserve">
<g>
	<g>
		<path d="M866.4,562.08c-287.2,0-574.4,0-861.6,0c-2.048-0.852-2.737-2.566-2.869-4.601c-0.062-0.956-0.042-1.919-0.041-2.879
			c0.059-66.957,0.16-133.915,0.168-200.872c0.006-49.837-0.138-99.675-0.161-149.512c-0.03-65.36-0.008-130.719,0-196.079
			c0-0.876,0.027-1.766,0.18-2.624c0.434-2.431,1.517-3.49,3.967-3.755c1.506-0.163,3.034-0.161,4.552-0.16
			c44.798,0.041,89.597,0.139,134.395,0.132c195.998-0.03,391.995-0.09,587.993-0.137c32.56-0.008,65.12-0.001,97.679-0.001
			c9.28,0,18.56-0.008,27.84,0.005c2.074,0.003,4.15,0.043,6.222,0.125c1.745,0.07,3.044,0.837,3.595,2.598
			c0,185.12,0,370.24,0,555.36C867.68,560.48,867.04,561.28,866.4,562.08z M322.121,301.184c1.243,0.052,1.264-0.835,1.382-1.597
			c0.651-4.185,1.219-8.385,1.94-12.558c2.503-14.489,4.918-28.996,7.64-43.444c1.819-9.656,3.928-19.267,6.226-28.821
			c2.173-9.037,7.332-15.862,16.027-19.732c4.035-1.796,4.571-2.865,4.018-7.278c-0.01-0.079-0.018-0.159-0.031-0.238
			c-0.865-5.365-1.733-10.729-2.596-16.094c-0.546-3.393-1.094-6.786-1.62-10.182c-0.169-1.089-0.006-2.115,1.044-2.724
			c0.993-0.576,1.842-0.06,2.653,0.5c1.909,1.318,3.812,2.643,5.725,3.954c8.773,6.014,17.59,11.966,26.306,18.06
			c4.25,2.972,8.465,3.398,13,0.787c1.518-0.874,3.147-1.574,4.767-2.253c11.188-4.688,22.751-6.226,34.75-4.1
			c6.671,1.182,12.988,3.393,18.959,6.557c4.436,2.351,8.495,1.915,12.589-0.922c10.385-7.197,20.853-14.275,31.299-21.384
			c0.842-0.573,1.772-1.018,2.555-1.461c1.95,1.058,2.076,1.221,1.801,3.041c-1.1,7.27-2.237,14.535-3.337,21.806
			c-0.346,2.291-0.663,4.588-0.909,6.891c-0.197,1.852,0.54,3.274,2.257,4.117c0.502,0.247,1,0.504,1.512,0.728
			c8.41,3.679,13.804,10.066,16.059,18.848c2.344,9.128,4.482,18.327,6.236,27.585c3.094,16.332,5.825,32.732,8.72,49.102
			c0.101,0.573,0.323,1.126,0.63,2.17c1-1.852,0.968-3.348,0.968-4.837c0-43.195,0.002-86.391-0.01-129.586
			c0-1.277-0.049-2.567-0.244-3.825c-0.126-0.815-0.56-1.581-0.894-2.469c-1.539-0.099-2.882-0.26-4.225-0.26
			c-69.913-0.012-139.825-0.011-209.738-0.004c-1.037,0-2.1-0.018-3.102,0.2c-0.791,0.172-1.505,0.694-2.353,1.109
			c-0.117,3.235-0.319,6.263-0.323,9.29c-0.048,38.475-0.067,76.951-0.093,115.426c-0.001,2.08,0.006,4.16-0.002,6.239
			c-0.018,4.959-0.053,9.918-0.052,14.877C321.656,299.54,321.458,300.456,322.121,301.184z M368.39,310.885
			c1.033-1.297,0.345-2.135-0.063-2.957c-5.1-10.271-7.9-21.207-9.437-32.509c-0.441-3.242-0.855-6.488-1.294-9.73
			c-0.129-0.956-0.246-1.938-1.683-2.418c-0.635,0.261-1.558,0.519-2.354,0.991c-2.923,1.732-4.154,4.435-4.51,7.738
			c-0.671,6.215-0.562,12.442-0.467,18.669c0.036,2.389,0.201,4.79,0.508,7.159c0.736,5.675,3.67,9.626,9.336,11.201
			c2.535,0.705,5.108,1.282,7.682,1.831C366.857,311.02,367.67,310.885,368.39,310.885z M510.033,264.225
			c-1.468,1.362-1.332,3.22-1.552,4.92c-1.008,7.767-2.239,15.487-4.345,23.046c-1.505,5.4-3.493,10.615-5.856,15.695
			c-0.384,0.826-1.109,1.624-0.505,2.77c1.292,0.623,2.601,0.014,3.895-0.199c3.967-0.655,7.805-1.714,11.209-3.964
			c2.32-1.534,3.787-3.601,4.062-6.451c0.2-2.066,0.573-4.116,0.746-6.183c0.233-2.784,0.551-5.585,0.47-8.368
			c-0.137-4.707-0.523-9.409-0.872-14.108c-0.216-2.899-1.637-5.123-4.091-6.691C512.279,264.108,511.333,263.778,510.033,264.225z
			 M373.671,340.802c12.272,0.394,24.606,0.474,37.175,0.306c0.196-0.888,0.353-1.6,0.533-2.419
			c-1.808-1.205-3.482-2.273-5.104-3.415c-1.632-1.15-3.26-2.315-4.799-3.582c-1.539-1.267-3.029-2.609-4.427-4.03
			c-1.398-1.421-2.733-2.919-3.953-4.495c-1.219-1.575-2.249-3.296-3.384-4.938c-1.09-1.576-1.522-3.566-3.122-5.247
			c-0.315,5.465,0.324,10.424,1.928,15.244c0.73,2.194,1.649,4.324,2.454,6.494c0.132,0.356,0.117,0.766,0.19,1.295
			c-0.52,0.349-1.016,0.681-1.738,1.166c-1.074-0.927-2.123-1.755-3.083-2.676c-4.685-4.495-8.854-9.431-12.576-14.75
			c-0.469-0.671-0.766-1.604-1.925-1.743c-0.158,0.404-0.409,0.752-0.417,1.106C371.333,323.379,372.824,338.702,373.671,340.802z
			 M492.912,340.597c0.274-2.616,0.591-4.978,0.75-7.35c0.154-2.311,0.272-4.639,0.173-6.95c-0.099-2.318,0.386-4.736-0.789-7.178
			c-0.421,0.443-0.726,0.688-0.937,0.998c-3.801,5.585-8.427,10.447-13.263,15.121c-0.8,0.773-1.688,1.459-2.56,2.153
			c-0.166,0.132-0.453,0.113-0.684,0.163c-0.121,0.11-0.242,0.219-0.363,0.329c-0.438-0.402-0.876-0.804-1.313-1.206
			c0.691-1.433,1.051-2.401,1.472-3.342c1.541-3.443,2.831-6.969,3.302-10.729c0.332-2.651,0.56-5.327-0.539-8.271
			c-0.502,0.923-0.797,1.555-1.171,2.136c-1.598,2.481-3.064,5.069-4.869,7.392c-3.007,3.872-6.72,7.054-10.639,9.985
			c-1.857,1.389-3.739,2.743-5.595,4.132c-0.786,0.589-1.535,1.228-0.85,2.651c0.61,0.089,1.371,0.292,2.135,0.298
			c11.113,0.092,22.225,0.167,33.338,0.21C491.184,341.143,491.862,340.843,492.912,340.597z M503.161,188.257
			c-0.552-0.037-1.183-0.234-1.711-0.078c-0.826,0.243-1.658,0.619-2.355,1.121c-4.947,3.561-7.912,8.45-9.305,14.314
			c-0.252,1.063-0.228,2.23-0.124,3.33c0.224,2.371,1.609,4.025,3.767,5.704c0.328-1.254,0.598-2.129,0.78-3.021
			c0.286-1.405,0.436-2.841,0.777-4.23c1.278-5.203,3.761-9.802,7.112-13.958C502.73,190.659,503.664,189.981,503.161,188.257z
			 M363.231,188.363c0.193,0.589,0.212,0.849,0.344,1.024c5.126,6.811,7.755,14.613,9.138,22.916
			c0.056,0.338,0.291,0.647,0.571,1.243c2.345-3.16,3.789-6.351,3.218-10.008c-0.876-5.616-3.696-10.158-8.413-13.419
			C366.725,189.178,365.232,188.46,363.231,188.363z"/>
		<path fill="#FFFFFF" d="M868.32,4.32c-0.551-1.761-1.85-2.529-3.595-2.598c-2.073-0.083-4.148-0.123-6.222-0.125
			c-9.28-0.012-18.56-0.005-27.84-0.005c-32.56,0-65.12-0.007-97.679,0.001C536.986,1.639,340.988,1.7,144.991,1.73
			C100.192,1.737,55.394,1.639,10.596,1.598C9.078,1.597,7.55,1.595,6.044,1.758C3.594,2.024,2.51,3.082,2.077,5.513
			c-0.153,0.859-0.18,1.749-0.18,2.624c-0.008,65.36-0.03,130.719,0,196.079c0.023,49.837,0.167,99.675,0.161,149.512
			C2.05,420.686,1.949,487.643,1.89,554.601c-0.001,0.96-0.021,1.922,0.041,2.879c0.132,2.035,0.821,3.749,2.869,4.601
			c-1.44,0-2.88,0-4.319,0c0-187.169,0-374.337,0-561.553c289.28,0,578.56,0,867.84,0C868.32,1.761,868.32,3.04,868.32,4.32z"/>
		<path fill="#FFFFFF" d="M866.4,562.08c0.64-0.8,1.28-1.6,1.92-2.4c0,0.8,0,1.6,0,2.4C867.68,562.08,867.04,562.08,866.4,562.08z"
			/>
		<path fill="#FFFFFF" d="M322.121,301.184c-0.663-0.727-0.465-1.644-0.465-2.484c0-4.959,0.035-9.918,0.052-14.877
			c0.007-2.08,0-4.16,0.002-6.239c0.026-38.475,0.045-76.951,0.093-115.426c0.004-3.028,0.206-6.055,0.323-9.29
			c0.848-0.415,1.562-0.938,2.353-1.109c1.002-0.218,2.065-0.2,3.102-0.2c69.913-0.008,139.825-0.008,209.738,0.004
			c1.343,0,2.686,0.161,4.225,0.26c0.333,0.888,0.767,1.655,0.894,2.469c0.195,1.258,0.243,2.548,0.244,3.825
			c0.011,43.195,0.009,86.391,0.01,129.586c0,1.489,0.032,2.985-0.968,4.837c-0.307-1.044-0.528-1.596-0.63-2.17
			c-2.894-16.37-5.626-32.77-8.72-49.102c-1.754-9.258-3.892-18.457-6.236-27.585c-2.255-8.782-7.649-15.168-16.059-18.848
			c-0.512-0.224-1.01-0.481-1.512-0.728c-1.716-0.843-2.454-2.265-2.257-4.117c0.245-2.303,0.562-4.6,0.909-6.891
			c1.099-7.27,2.237-14.535,3.337-21.806c0.275-1.82,0.149-1.983-1.801-3.041c-0.782,0.444-1.712,0.888-2.555,1.461
			c-10.446,7.109-20.914,14.186-31.299,21.384c-4.094,2.837-8.152,3.273-12.589,0.922c-5.971-3.164-12.289-5.375-18.959-6.557
			c-11.999-2.126-23.562-0.588-34.75,4.1c-1.62,0.679-3.249,1.379-4.767,2.253c-4.535,2.611-8.749,2.185-13-0.787
			c-8.717-6.095-17.533-12.046-26.306-18.06c-1.913-1.311-3.816-2.637-5.725-3.954c-0.811-0.56-1.66-1.075-2.653-0.5
			c-1.05,0.609-1.213,1.634-1.044,2.724c0.526,3.396,1.074,6.789,1.62,10.182c0.863,5.365,1.73,10.729,2.596,16.094
			c0.013,0.079,0.021,0.159,0.031,0.238c0.553,4.413,0.017,5.482-4.018,7.278c-8.696,3.871-13.854,10.696-16.027,19.732
			c-2.298,9.554-4.407,19.165-6.226,28.821c-2.722,14.448-5.137,28.955-7.64,43.444c-0.721,4.173-1.289,8.372-1.94,12.558
			C323.385,300.349,323.364,301.236,322.121,301.184z"/>
		<path fill="#FFFFFF" d="M368.39,310.885c-0.72,0-1.533,0.135-2.283-0.025c-2.574-0.549-5.147-1.127-7.682-1.831
			c-5.666-1.575-8.6-5.526-9.336-11.201c-0.307-2.369-0.471-4.77-0.508-7.159c-0.095-6.227-0.203-12.454,0.467-18.669
			c0.356-3.304,1.588-6.007,4.51-7.738c0.796-0.472,1.72-0.729,2.354-0.991c1.437,0.479,1.554,1.462,1.683,2.418
			c0.439,3.242,0.853,6.488,1.294,9.73c1.537,11.303,4.337,22.239,9.437,32.509C368.735,308.75,369.424,309.587,368.39,310.885z"/>
		<path fill="#FFFFFF" d="M510.033,264.225c1.3-0.446,2.245-0.117,3.16,0.467c2.454,1.568,3.875,3.792,4.091,6.691
			c0.35,4.699,0.735,9.4,0.872,14.108c0.081,2.783-0.236,5.583-0.47,8.368c-0.173,2.067-0.547,4.117-0.746,6.183
			c-0.276,2.849-1.743,4.917-4.062,6.451c-3.404,2.251-7.242,3.31-11.209,3.964c-1.294,0.214-2.603,0.822-3.895,0.199
			c-0.604-1.146,0.121-1.944,0.505-2.77c2.363-5.08,4.351-10.295,5.856-15.695c2.106-7.559,3.337-15.279,4.345-23.046
			C508.702,267.444,508.565,265.587,510.033,264.225z"/>
		<path fill="#FFFFFF" d="M373.671,340.802c-0.847-2.099-2.338-17.423-2.248-21.684c0.007-0.354,0.258-0.703,0.417-1.106
			c1.158,0.139,1.455,1.072,1.925,1.743c3.722,5.319,7.891,10.256,12.576,14.75c0.96,0.921,2.009,1.749,3.083,2.676
			c0.722-0.484,1.219-0.817,1.738-1.166c-0.073-0.529-0.058-0.939-0.19-1.295c-0.805-2.17-1.724-4.3-2.454-6.494
			c-1.604-4.82-2.243-9.778-1.928-15.244c1.601,1.681,2.032,3.671,3.122,5.247c1.135,1.642,2.165,3.362,3.384,4.938
			c1.219,1.575,2.555,3.074,3.953,4.495c1.398,1.421,2.888,2.763,4.427,4.03c1.54,1.268,3.168,2.432,4.799,3.582
			c1.622,1.143,3.296,2.21,5.104,3.415c-0.18,0.818-0.337,1.531-0.533,2.419C398.277,341.276,385.942,341.196,373.671,340.802z"/>
		<path fill="#FFFFFF" d="M492.912,340.597c-1.05,0.246-1.728,0.546-2.405,0.543c-11.113-0.043-22.226-0.117-33.338-0.21
			c-0.763-0.006-1.525-0.209-2.135-0.298c-0.685-1.423,0.064-2.062,0.85-2.651c1.856-1.39,3.739-2.744,5.595-4.132
			c3.919-2.931,7.632-6.113,10.639-9.985c1.804-2.323,3.27-4.911,4.869-7.392c0.374-0.581,0.669-1.214,1.171-2.136
			c1.099,2.944,0.871,5.62,0.539,8.271c-0.471,3.76-1.761,7.287-3.302,10.729c-0.421,0.941-0.781,1.909-1.472,3.342
			c0.438,0.402,0.876,0.804,1.313,1.206c0.121-0.11,0.242-0.219,0.363-0.329c0.231-0.05,0.518-0.031,0.684-0.163
			c0.873-0.694,1.76-1.38,2.56-2.153c4.836-4.674,9.462-9.536,13.263-15.121c0.211-0.31,0.516-0.555,0.937-0.998
			c1.175,2.442,0.69,4.86,0.789,7.178c0.099,2.311-0.019,4.638-0.173,6.95C493.503,335.619,493.185,337.981,492.912,340.597z"/>
		<path fill="#FFFFFF" d="M503.161,188.257c0.503,1.723-0.431,2.402-1.059,3.181c-3.351,4.156-5.833,8.755-7.112,13.958
			c-0.341,1.39-0.491,2.825-0.777,4.23c-0.182,0.892-0.452,1.767-0.78,3.021c-2.159-1.679-3.543-3.333-3.767-5.704
			c-0.104-1.1-0.128-2.267,0.124-3.33c1.392-5.865,4.358-10.753,9.305-14.314c0.698-0.502,1.529-0.878,2.355-1.121
			C501.977,188.024,502.609,188.22,503.161,188.257z"/>
		<path fill="#FFFFFF" d="M363.231,188.363c2.001,0.097,3.495,0.815,4.858,1.758c4.717,3.26,7.537,7.802,8.413,13.419
			c0.57,3.656-0.874,6.848-3.218,10.008c-0.28-0.596-0.515-0.905-0.571-1.243c-1.383-8.304-4.012-16.105-9.138-22.916
			C363.443,189.212,363.423,188.952,363.231,188.363z"/>
	</g>
</g>
</svg>
