<?xml version="1.0" encoding="utf-8"?>
<!-- Generator: Adobe Illustrator 17.0.0, SVG Export Plug-In . SVG Version: 6.00 Build 0)  -->
<!DOCTYPE svg PUBLIC "-//W3C//DTD SVG 1.1//EN" "http://www.w3.org/Graphics/SVG/1.1/DTD/svg11.dtd">
<svg version="1.1" id="图层_1" xmlns="http://www.w3.org/2000/svg" xmlns:xlink="http://www.w3.org/1999/xlink" x="0px" y="0px"
	 width="960px" height="560px" viewBox="0 0 960 560" enable-background="new 0 0 960 560" xml:space="preserve">
<g>
	<g>
		<path d="M107.188,61.795c1.788-0.379,2.957-0.707,4.149-0.855c0.985-0.122,1.996-0.035,2.996-0.035
			c67.859-0.001,135.717-0.005,203.576,0.02c2.07,0.001,4.14,0.311,6.01,0.461c1.141,3.59,1.143,132.387-0.029,136.018
			c-0.372-1.058-0.678-1.644-0.782-2.264c-1.525-9.104-2.896-18.236-4.566-27.314c-1.579-8.581-3.414-17.117-5.236-25.652
			c-1.482-6.948-2.908-13.918-4.725-20.782c-2.341-8.841-7.856-15.131-16.282-18.832c-1.307-0.574-2.504-1.398-3.727-2.093
			c1.013-11.168,3.922-21.642,4.49-32.193c-1.834-1.112-2.824-0.094-3.818,0.556c-5.738,3.751-11.44,7.559-17.166,11.328
			c-5.63,3.705-11.302,7.347-16.901,11.098c-2.345,1.571-4.742,1.585-7.078,0.37c-4.765-2.478-9.635-4.647-14.848-5.99
			c-8.931-2.301-17.923-2.899-27.066-1.313c-7.449,1.292-14.462,3.694-21.111,7.275c-2.494,1.344-4.953,1.107-7.401-0.53
			c-10.576-7.075-21.198-14.081-31.835-21.064c-1.583-1.039-3.003-2.654-5.707-2.156c0.67,10.959,3.843,21.545,4.493,32.648
			c-1.207,0.729-2.176,1.502-3.278,1.95c-10.044,4.081-15.358,11.835-17.527,22.162c-2.101,10.004-4.421,19.963-6.472,29.977
			c-1.4,6.836-2.509,13.732-3.739,20.603c-1.318,7.363-2.646,14.724-3.922,22.095c-0.34,1.965-0.45,3.97-0.777,5.939
			c-0.15,0.904-0.57,1.764-0.868,2.643c-0.292-0.041-0.584-0.081-0.875-0.122c0-15.837,0-31.674,0-47.511
			c0-16.121-0.004-32.242,0.001-48.363C107.173,93.919,107.145,77.969,107.188,61.795z"/>
		<path d="M140.418,168.213c1.983,0.536,2.188,1.798,2.325,3.271c1.166,12.584,3.535,24.89,8.733,36.51
			c0.846,1.892,1.832,3.722,3.049,6.177c-1.673,0.059-2.91,0.365-4.003,0.093c-3.488-0.867-7.067-1.617-10.34-3.037
			c-3.51-1.523-5.501-4.695-6.024-8.484c-1.252-9.069-1.066-18.16-0.074-27.25C134.512,171.578,137.245,169.797,140.418,168.213z"/>
		<path d="M279.667,213.908c1.276-2.775,2.457-5.217,3.532-7.703c3.331-7.702,5.216-15.803,6.495-24.06
			c0.552-3.565,0.939-7.158,1.566-10.709c0.169-0.96,0.941-1.814,1.377-2.608c4.721,1.093,6.942,3.517,7.195,7.709
			c0.315,5.215,0.693,10.436,0.704,15.655c0.008,3.722-0.284,7.493-0.955,11.147c-0.359,1.958-1.478,4.009-2.824,5.506
			C293.857,212.07,284.773,214.66,279.667,213.908z"/>
		<path d="M195.733,242.989c-5.827,0.24-11.447,0.364-16.628-0.045c-5.442-7.457-8.124-15.347-8.628-23.978
			c-0.082-1.401-0.471-2.911,0.434-4.204c2.214,3.749,4.113,7.499,6.506,10.9c4.075,5.792,9.717,9.911,15.657,13.634
			C194.178,239.988,195.656,240.395,195.733,242.989z"/>
		<path d="M261.35,216.344c2.593,10.075-1.758,18.34-6.928,26.36c-3.816,0.755-13.95,0.629-16.648-0.217
			c-0.124-1.898,1.571-2.364,2.659-3.243c3.581-2.892,7.28-5.641,10.81-8.593C255.822,226.82,258.97,221.94,261.35,216.344z"/>
		<path d="M156.869,220.605c1.931,2.531,3.793,5.119,5.813,7.577c2.055,2.501,4.169,4.97,6.437,7.276
			c2.236,2.274,4.857,4.171,7.155,7.016c-3.399,1.291-6.478,0.516-9.462,0.659c-2.954,0.142-5.92,0.031-9.289,0.031
			c-0.595-7.689-1.157-14.95-1.719-22.21C156.159,220.837,156.514,220.721,156.869,220.605z"/>
		<path d="M275.882,221.326c1.313,4.471,1.054,16.566-0.266,21.201c-2.898,0.839-14.766,0.904-18.55-0.029
			c1.08-1.249,1.958-2.367,2.943-3.383c3.983-4.111,8.064-8.129,11.969-12.312C273.394,225.286,274.421,223.405,275.882,221.326z"/>
		<path d="M275.52,120.314c-0.848-1.355-1.872-2.635-2.489-4.088c-0.517-1.215-1.053-2.771-0.727-3.936
			c1.552-5.535,3.444-10.992,8.597-14.366c1.517-0.993,3.298-1.582,5.717-2.711c-0.464,1.512-0.549,2.329-0.94,2.956
			c-0.987,1.583-2.102,3.087-3.181,4.611c-2.403,3.395-4.253,6.988-4.732,11.227c-0.233,2.067-0.9,4.085-1.371,6.125
			C276.102,120.193,275.811,120.253,275.52,120.314z"/>
		<path d="M157.832,120.997c-1.326-4.771-2.085-9.342-3.884-13.457c-1.81-4.141-4.655-7.831-7.165-11.911
			c3.281,0.206,5.846,1.957,8.062,3.982c3.366,3.076,5.743,6.937,6.325,11.534C161.619,114.695,160.377,117.895,157.832,120.997z"/>
	</g>
</g>
</svg>
