<?xml version="1.0" encoding="utf-8"?>
<!-- Generator: Adobe Illustrator 17.0.0, SVG Export Plug-In . SVG Version: 6.00 Build 0)  -->
<!DOCTYPE svg PUBLIC "-//W3C//DTD SVG 1.1//EN" "http://www.w3.org/Graphics/SVG/1.1/DTD/svg11.dtd">
<svg version="1.1" id="图层_1" xmlns="http://www.w3.org/2000/svg" xmlns:xlink="http://www.w3.org/1999/xlink" x="0px" y="0px"
	 width="960px" height="560px" viewBox="0 0 960 560" enable-background="new 0 0 960 560" xml:space="preserve">
<g>
	<g>
		<path fill="#F8B0BA" d="M267.268,264.921l-0.222,0.098l-0.227-0.087c-3.474-0.017-6.947-0.034-10.421-0.051
			c-1.63-0.208-3.261-0.416-4.891-0.624c-0.477-0.066-0.955-0.131-1.432-0.197c-1.122-0.196-2.245-0.392-3.367-0.588
			c-0.461-0.077-0.923-0.154-1.384-0.232c0.405-0.565,0.685-1.357,1.238-1.653c1.914-1.026,3.924-1.879,5.897-2.798
			c6.064-0.261,12.128-0.522,18.192-0.783c0.987,0.191,1.991,0.323,2.959,0.583c2.597,0.699,5.194,1.405,7.744,2.248
			c0.297,0.098,0.297,1.075,0.434,1.644l0.064,0.096c-1.333,0.244-2.666,0.489-3.999,0.733
			C274.325,263.847,270.796,264.384,267.268,264.921z"/>
		<path fill="#E6E6E6" d="M240.247,254.828c3.639-0.414,7.168-0.01,10.567,1.372c-2.295-0.623-3.588,1.64-5.58,1.888
			c-2.174,0.465-4.534,0.553-6.475,1.489c-2.531,1.221-4.756,0.893-7.127-0.013c-1.043-0.514-2.086-1.027-3.128-1.541
			c0.087-0.213,0.174-0.426,0.26-0.639c1.852-0.327,3.705-0.653,5.557-0.98c3.71,0,7.42,0,11.13,0
			c0.007-0.151,0.015-0.301,0.022-0.452C243.73,255.578,241.988,255.203,240.247,254.828z"/>
		<path fill="#22191B" d="M270.651,258.006c-6.064,0.261-12.128,0.522-18.192,0.783c-0.804-0.084-1.607-0.168-2.411-0.252
			c1.329-2.398,3.72-0.924,5.553-1.483c4.709-0.036,9.418-0.071,14.128-0.107c3.376,0.463,6.654,0.222,9.754-1.313
			c0.526-0.049,1.051-0.098,1.577-0.147c0.005,0.807,0.01,1.614,0.014,2.422C277.6,257.942,274.125,257.974,270.651,258.006z"/>
		<path fill="#554F51" d="M231.631,259.564c2.371,0.906,4.596,1.233,7.127,0.013c1.941-0.936,4.301-1.024,6.475-1.489
			c0.006,0.168-0.001,0.336-0.019,0.504c-1.378,0.56-2.753,1.127-4.133,1.679c-1.263,0.505-2.532,0.993-3.799,1.489
			c0.015,0.206,0.015,0.412,0,0.618c-2.194-0.666-4.387-1.332-6.581-1.998C231.011,260.107,231.321,259.836,231.631,259.564z"/>
		<path fill="#1A1A1A" d="M231.631,259.564c-0.31,0.272-0.62,0.543-0.93,0.815c-1.789-0.746-3.579-1.491-5.368-2.237
			c-0.009-0.335-0.018-0.671-0.027-1.006c2.136-0.508,4.272-1.015,6.409-1.523c0.869,0.264,1.737,0.528,2.606,0.792
			c-1.852,0.327-3.705,0.653-5.557,0.98c-0.087,0.213-0.174,0.426-0.26,0.639C229.545,258.537,230.588,259.05,231.631,259.564z"/>
		<path fill="#101010" d="M234.32,256.405c-0.869-0.264-1.737-0.528-2.606-0.792c2.844-0.262,5.688-0.523,8.532-0.785
			c1.742,0.375,3.484,0.75,5.225,1.125c-0.007,0.151-0.015,0.301-0.022,0.452C241.74,256.405,238.03,256.405,234.32,256.405z"/>
		<path fill="#554D50" d="M281.074,257.91c-0.005-0.807-0.01-1.614-0.014-2.422c1.852-0.237,3.704-0.473,5.556-0.71
			c0,0.208-0.002,0.415-0.006,0.623c-1.231,0.401-2.462,0.802-3.817,1.243c0.549,0.435,1.004,0.796,1.459,1.156
			c0.011,0.247,0.025,0.494,0.043,0.741C283.22,258.332,282.147,258.121,281.074,257.91z"/>
		<path fill="#664E52" d="M267.268,264.921c3.528-0.537,7.057-1.073,10.585-1.61c0.009,0.288,0.017,0.576,0.026,0.864
			c-1.09,0.306-2.179,0.612-3.269,0.918c-1.306,0.148-2.613,0.296-3.919,0.444C269.55,265.332,268.409,265.126,267.268,264.921z"/>
		<path fill="#4F3E44" d="M245.214,258.592c0.019-0.167,0.025-0.335,0.019-0.504c1.992-0.248,3.286-2.511,5.58-1.888
			c1.596,0.285,3.191,0.57,4.787,0.854c-1.833,0.559-4.223-0.916-5.553,1.483C248.437,258.556,246.826,258.574,245.214,258.592z"/>
		<path fill="#666666" d="M286.609,255.402c0.004-0.208,0.006-0.415,0.006-0.623c3.386,0.273,6.773,0.546,10.159,0.819
			c0.124,0.229,0.188,0.474,0.191,0.734c0,0,0.054-0.064,0.054-0.064C293.549,255.979,290.079,255.69,286.609,255.402z"/>
		<path fill="#4F3D43" d="M237.282,262.377c0.015-0.206,0.015-0.412,0-0.618c2.681,0.494,5.361,0.987,8.042,1.481
			c0.461,0.077,0.923,0.154,1.384,0.232c-0.75,0.248-1.501,0.496-2.251,0.744C242.065,263.603,239.673,262.99,237.282,262.377z"/>
		<path fill="#5C494F" d="M293.147,260.338c-1.398,0.438-2.797,0.876-4.195,1.314c-0.249-0.235-0.497-0.469-0.746-0.704
			c0.379-0.415,0.758-0.83,1.028-1.125c-0.644-0.424-1.231-0.81-1.817-1.196c-0.038-0.194-0.052-0.39-0.04-0.588
			c1.348,0.483,2.697,0.966,4.045,1.449C291.998,259.771,292.572,260.054,293.147,260.338z"/>
		<path fill="#1B1516" d="M256.398,264.88c3.474,0.017,6.947,0.034,10.421,0.051c-1.02,0.274-2.034,0.759-3.059,0.781
			c-2.96,0.065-5.923-0.057-8.885-0.105C255.382,265.365,255.89,265.123,256.398,264.88z"/>
		<path fill="#554D50" d="M279.483,255.635c-3.1,1.535-6.379,1.776-9.754,1.313C272.98,256.51,276.231,256.073,279.483,255.635z"/>
		<path fill="#937075" d="M256.398,264.88c-0.508,0.242-1.016,0.485-1.524,0.727c-1.933-0.19-3.866-0.379-5.799-0.569
			c0.811-0.261,1.622-0.521,2.432-0.782C253.138,264.465,254.768,264.673,256.398,264.88z"/>
		<path fill="#614549" d="M277.879,264.174c-0.009-0.288-0.017-0.576-0.026-0.864c1.333-0.244,2.666-0.489,3.999-0.733
			c0.001,0.225,0.003,0.449,0.004,0.674C280.53,263.559,279.204,263.867,277.879,264.174z"/>
		<path fill="#454545" d="M299.361,256.088c0.719,0.113,1.437,0.227,2.156,0.34c0.066,0.235,0.131,0.469,0.197,0.704
			c-0.76,0.31-1.519,0.62-2.279,0.93c-0.322-0.317-0.644-0.633-0.966-0.95c-0.483-0.281-0.966-0.563-1.45-0.844l-0.054,0.064
			C297.764,256.25,298.563,256.169,299.361,256.088z"/>
		<path fill="#505050" d="M298.469,257.111c0.322,0.317,0.644,0.633,0.966,0.95c-1.101,0.422-2.203,0.844-3.304,1.266
			c-0.283-0.255-0.566-0.511-0.848-0.766C296.345,258.078,297.407,257.595,298.469,257.111z"/>
		<path fill="#554044" d="M281.855,263.251c-0.001-0.225-0.002-0.449-0.004-0.674l-0.064-0.096c1.374-0.454,2.748-0.909,4.121-1.363
			c0.272,0.245,0.544,0.49,0.816,0.735C285.102,262.32,283.479,262.785,281.855,263.251z"/>
		<path fill="#AB6179" d="M244.457,264.216c0.75-0.248,1.501-0.496,2.251-0.744c1.122,0.196,2.245,0.392,3.367,0.588
			c-0.803,0.236-1.607,0.473-2.41,0.709C246.595,264.585,245.526,264.4,244.457,264.216z"/>
		<path fill="#131313" d="M295.282,258.561c0.283,0.255,0.566,0.511,0.848,0.766c-0.788,0.24-1.576,0.479-2.364,0.719
			c-0.318-0.233-0.636-0.466-0.954-0.699C293.636,259.085,294.459,258.823,295.282,258.561z"/>
		<path fill="#63474B" d="M247.665,264.769c0.803-0.236,1.607-0.473,2.41-0.709c0.477,0.066,0.955,0.131,1.432,0.197
			c-0.811,0.261-1.622,0.521-2.432,0.782C248.605,264.949,248.135,264.859,247.665,264.769z"/>
		<path fill="#F8B0BA" d="M270.691,265.537c1.306-0.148,2.613-0.296,3.919-0.444C273.304,265.241,271.997,265.389,270.691,265.537z"
			/>
		<path fill="#1A0D12" d="M286.726,261.854c-0.272-0.245-0.544-0.49-0.816-0.735c0.766-0.057,1.532-0.114,2.298-0.171
			c0.249,0.235,0.497,0.469,0.746,0.704C288.21,261.719,287.468,261.786,286.726,261.854z"/>
		<path fill="#EDEDED" d="M299.361,256.088c-0.799,0.081-1.597,0.162-2.396,0.244c-0.003-0.26-0.067-0.505-0.191-0.734
			C297.637,255.761,298.499,255.924,299.361,256.088z"/>
		<path fill="#111111" d="M292.813,259.348c0.318,0.233,0.636,0.466,0.954,0.699c-0.157,0.199-0.364,0.296-0.619,0.291
			c-0.575-0.284-1.15-0.567-1.725-0.851C291.886,259.441,292.35,259.394,292.813,259.348z"/>
		<path fill="#A55772" d="M288.207,260.948c-0.766,0.057-1.532,0.114-2.298,0.171c-1.374,0.454-2.748,0.909-4.121,1.363
			c-0.138-0.569-0.137-1.545-0.434-1.644c-2.55-0.843-5.147-1.55-7.744-2.248c-0.968-0.26-1.971-0.393-2.959-0.583
			c3.474-0.032,6.949-0.064,10.423-0.096c1.073,0.211,2.146,0.422,3.219,0.634c1.041,0.028,2.083,0.055,3.125,0.082
			c0.586,0.386,1.173,0.772,1.817,1.196C288.965,260.117,288.586,260.533,288.207,260.948z"/>
		<path fill="#AB6179" d="M245.324,263.24c-2.681-0.494-5.361-0.987-8.042-1.481c1.267-0.496,2.536-0.984,3.799-1.489
			c1.381-0.552,2.756-1.118,4.133-1.679c1.611-0.018,3.222-0.036,4.834-0.054c0.804,0.084,1.607,0.168,2.411,0.252
			c-1.973,0.919-3.982,1.772-5.897,2.798C246.009,261.883,245.729,262.675,245.324,263.24z"/>
		<path fill="#EDEDED" d="M292.813,259.348c-0.464,0.046-0.927,0.093-1.391,0.139c-1.348-0.483-2.697-0.966-4.045-1.449
			c-1.042-0.079-2.084-0.158-3.127-0.237c-0.455-0.361-0.91-0.721-1.459-1.156c1.355-0.441,2.586-0.842,3.817-1.243
			c3.47,0.288,6.94,0.577,10.41,0.865c0.483,0.281,0.966,0.563,1.45,0.844c-1.062,0.483-2.125,0.966-3.187,1.449
			C294.459,258.823,293.636,259.085,292.813,259.348z"/>
		<path fill="#231D1F" d="M284.251,257.801c1.042,0.079,2.084,0.158,3.127,0.237c-0.011,0.198,0.002,0.394,0.04,0.588
			c-1.042-0.027-2.083-0.055-3.125-0.083C284.276,258.296,284.262,258.049,284.251,257.801z"/>
	</g>
</g>
</svg>
