<?xml version="1.0" encoding="utf-8"?>
<!-- Generator: Adobe Illustrator 17.0.0, SVG Export Plug-In . SVG Version: 6.00 Build 0)  -->
<!DOCTYPE svg PUBLIC "-//W3C//DTD SVG 1.1//EN" "http://www.w3.org/Graphics/SVG/1.1/DTD/svg11.dtd">
<svg version="1.1" id="图层_1" xmlns="http://www.w3.org/2000/svg" xmlns:xlink="http://www.w3.org/1999/xlink" x="0px" y="0px"
	 width="960px" height="560px" viewBox="0 0 960 560" enable-background="new 0 0 960 560" xml:space="preserve">
<g>
	<g>
		<path fill="#F6ACB7" d="M268.371,262.481l-0.322,0.145l-0.348-0.064c-1.911,0.309-3.821,0.619-5.732,0.928
			c-0.835,0.007-1.669,0.014-2.504,0.021c-1.004-0.353-2.007-0.705-3.011-1.058c-2.038-0.988-4.076-1.976-6.467-3.135
			c0.997-0.872,1.716-1.501,2.435-2.13c0.774-0.308,1.548-0.617,2.322-0.925c1.449,0.002,2.991,0.325,4.33-0.053
			c4.581-1.295,8.09,0.809,11.584,3.157c-0.252,0.286-0.504,0.571-0.756,0.857C268.831,260.604,267.66,260.92,268.371,262.481z"/>
		<path fill="#EFDDDA" d="M268.322,274.404c-1.394,0.504-2.788,1.007-4.182,1.51c-0.188-0.259-0.376-0.518-0.564-0.777
			c0.569-0.434,1.139-0.869,1.665-1.27c-0.433-0.265-1.016-0.621-1.81-1.106c4.446-3.01,8.62-5.836,13.084-8.859
			c0.642,2.239,1.092,4.011-0.201,5.755c-0.168-0.182-0.459-0.539-0.485-0.521C273.314,270.874,270.818,272.64,268.322,274.404z"/>
		<path fill="#352028" d="M254.746,256.263c-0.774,0.308-1.548,0.617-2.322,0.925c-1.441,0.299-2.883,0.599-3.869,0.803
			c-0.103,0.759-0.154,1.13-0.204,1.502c-1.037-0.327-2.074-0.653-3.111-0.98c-0.257-0.445-0.514-0.889-0.77-1.334
			c2.122-0.665,4.247-1.323,6.367-1.995c6.304-1.997,12.634-2.223,18.998-0.29c-1.073,0.232-2.145,0.465-3.218,0.697
			C262.6,254.8,258.563,253.637,254.746,256.263z"/>
		<path fill="#BF798B" d="M254.746,256.263c3.817-2.626,7.854-1.463,11.87-0.67c2.697,0.801,5.395,1.603,8.092,2.404
			c-0.517,0.46-1.034,0.921-1.551,1.381c-0.832-0.004-1.664-0.008-2.497-0.011c-3.494-2.348-7.003-4.452-11.584-3.157
			C257.737,256.587,256.194,256.264,254.746,256.263z"/>
		<path fill="#4F4044" d="M274.707,257.996c-2.697-0.801-5.395-1.603-8.092-2.404c1.073-0.232,2.145-0.465,3.218-0.697
			c2.905,0.508,5.809,1.016,8.714,1.524c-0.769,0.456-1.538,0.913-2.306,1.369C275.73,257.858,275.218,257.927,274.707,257.996z"/>
		<path fill="#806A6D" d="M248.351,259.493c0.051-0.372,0.101-0.743,0.204-1.502c0.986-0.205,2.427-0.504,3.869-0.803
			c-0.719,0.629-1.438,1.258-2.435,2.13c2.392,1.159,4.43,2.147,6.467,3.135c-0.521,0.24-1.041,0.479-1.562,0.719
			C252.712,261.946,250.532,260.72,248.351,259.493z"/>
		<path fill="#ABA7A6" d="M268.322,274.404c2.497-1.764,4.992-3.529,7.507-5.266c0.026-0.018,0.318,0.339,0.485,0.521
			C273.65,271.24,270.986,272.822,268.322,274.404z"/>
		<path fill="#2D2728" d="M261.97,263.49c1.911-0.309,3.821-0.619,5.732-0.928c-2.169,0.754-4.338,1.508-6.506,2.262
			C261.454,264.379,261.712,263.935,261.97,263.49z"/>
		<path fill="#4B4B4B" d="M244.469,257.18c0.257,0.445,0.514,0.889,0.77,1.334c-1.489-0.089-2.979-0.177-4.468-0.266
			c-0.005-0.356-0.009-0.712-0.014-1.068C241.994,257.18,243.231,257.18,244.469,257.18z"/>
		<path fill="#1F191A" d="M254.893,263.172c0.521-0.24,1.041-0.479,1.562-0.719c1.004,0.353,2.007,0.705,3.011,1.058
			c-0.253,0.226-0.505,0.452-0.758,0.678C257.437,263.85,256.165,263.511,254.893,263.172z"/>
		<path fill="#919191" d="M276.241,257.788c0.769-0.456,1.538-0.913,2.306-1.369c0.631,0,1.262,0,1.893,0
			c0.029,0.245,0.057,0.49,0.086,0.735C279.098,257.366,277.67,257.577,276.241,257.788z"/>
		<path fill="#48383B" d="M270.659,259.366c0.832,0.004,1.664,0.008,2.497,0.011c-1.051,0.634-2.101,1.268-3.152,1.902
			c-0.034-0.352-0.067-0.704-0.101-1.057C270.155,259.937,270.407,259.652,270.659,259.366z"/>
		<path fill="#5C5153" d="M258.708,264.189c0.253-0.226,0.505-0.452,0.758-0.678c0.835-0.007,1.669-0.014,2.504-0.021
			c-0.258,0.445-0.517,0.889-0.775,1.334C260.366,264.612,259.537,264.4,258.708,264.189z"/>
		<path fill="#474343" d="M269.903,260.223c0.034,0.352,0.067,0.704,0.101,1.057c-0.544,0.4-1.089,0.801-1.633,1.201
			C267.66,260.92,268.831,260.604,269.903,260.223z"/>
	</g>
</g>
</svg>
