<?xml version="1.0" encoding="utf-8"?>
<!-- Generator: Adobe Illustrator 17.0.0, SVG Export Plug-In . SVG Version: 6.00 Build 0)  -->
<!DOCTYPE svg PUBLIC "-//W3C//DTD SVG 1.1//EN" "http://www.w3.org/Graphics/SVG/1.1/DTD/svg11.dtd">
<svg version="1.1" id="图层_1" xmlns="http://www.w3.org/2000/svg" xmlns:xlink="http://www.w3.org/1999/xlink" x="0px" y="0px"
	 width="960px" height="560px" viewBox="0 0 960 560" enable-background="new 0 0 960 560" xml:space="preserve">
<g>
	<g>
		<path d="M303.899,253.424c-3.73,1.314-7.043,1.576-10.297,2.055c-3.433,0.505-6.863,1.027-10.374,0.836
			c-3.476-0.189-6.837,1.087-10.378,0.816c-3.529-0.27-7.095-0.059-10.729-0.059c-0.085-0.474-0.149-0.83-0.25-1.399
			c0.809,0,1.804-0.297,2.19,0.055c1.2,1.097,2.924,0.912,3.677,0.431c1.543-0.984,3.044-0.673,4.508-0.607
			c3.121,0.142,6.04-1.158,9.193-0.897c3.15,0.26,6.395,0.408,9.49-0.073c1.879-0.292,4.005-0.066,5.569-0.799
			c1.978-0.928,3.819-0.344,5.689-0.627C302.529,253.105,302.904,253.259,303.899,253.424z"/>
		<path d="M261.042,256.285c-1.152,0.853-2.088,1.719-3.595,1.62c-2.633-0.172-5.37,0.361-7.911-0.146
			c-3.609-0.719-7.254-0.255-10.778-0.817c-2.691-0.428-5.359-0.403-8.016-0.714c-3.152-0.369-6.254-1.163-9.35-2.028
			c3.567,0.175,7.18-1.236,10.674,0.472c0.213,0.104,0.522,0.074,0.775,0.033c3.659-0.593,7.132,1.024,10.783,0.854
			c1.857-0.087,3.737,0.57,5.62,0.696c1.975,0.132,3.965,0.029,5.949,0.029C257.143,256.285,259.093,256.285,261.042,256.285z"/>
	</g>
</g>
</svg>
