<?xml version="1.0" encoding="utf-8"?>
<!-- Generator: Adobe Illustrator 17.0.0, SVG Export Plug-In . SVG Version: 6.00 Build 0)  -->
<!DOCTYPE svg PUBLIC "-//W3C//DTD SVG 1.1//EN" "http://www.w3.org/Graphics/SVG/1.1/DTD/svg11.dtd">
<svg version="1.1" id="图层_1" xmlns="http://www.w3.org/2000/svg" xmlns:xlink="http://www.w3.org/1999/xlink" x="0px" y="0px"
	 width="960px" height="560px" viewBox="0 0 960 560" enable-background="new 0 0 960 560" xml:space="preserve">
<g>
	<g>
		<path d="M297.774,254.713c-1.282,1.697-3.38,1.769-5.163,2.253c-0.953,0.259-1.899,0.768-2.823,0.814
			c-1.079,0.054-1.578,0.707-2.339,1.144c-0.712,0.409-1.765,0.199-2.545,0.538c-1.714,0.744-3.724,0.933-5.223,1.711
			c-1.806,0.938-3.964-0.268-5.411,1.381c-0.114,0.13-0.514,0.054-0.773,0.015c-3.661-0.559-7.171,0.837-10.795,0.799
			c-3.575-0.037-7.168,0.208-10.721-0.072c-3.234-0.254-6.555-0.674-9.599-1.706c-2.972-1.007-6.088-1.136-9.023-2.145
			c-3.36-1.156-6.765-2.183-10.14-3.299c-0.152-0.05-0.194-0.424-0.288-0.648c1.737,0.274,3.626,0.212,5.18,0.894
			c3.148,1.381,6.511,1.547,9.757,2.326c3.599,0.865,7.243,1.102,10.841,1.677c3.111,0.498,6.153,0.485,9.227,0.584
			c3.04,0.098,6.089,0.1,9.128-0.014c1.354-0.051,2.688-0.514,4.039-0.743c1.353-0.23,2.915,0.594,4.036-0.793
			c2.971,0.253,5.673-0.845,8.484-1.518c4.205-1.005,8.457-1.803,12.568-3.178C296.669,254.576,297.245,254.713,297.774,254.713z"/>
		<path d="M297.753,254.102c0.507-0.043,1.014-0.086,1.522-0.129c0.023,0.169,0.047,0.338,0.07,0.508
			c-0.519,0.1-1.037,0.2-1.556,0.301C297.777,254.555,297.765,254.329,297.753,254.102z"/>
		<path d="M221.003,254.591c0.97,0.272,1.449,0.407,1.929,0.542c-0.371,0.122-0.735,0.287-1.116,0.34
			C221.703,255.489,221.545,255.193,221.003,254.591z"/>
	</g>
</g>
</svg>
