<?xml version="1.0" encoding="utf-8"?>
<!-- Generator: Adobe Illustrator 17.0.0, SVG Export Plug-In . SVG Version: 6.00 Build 0)  -->
<!DOCTYPE svg PUBLIC "-//W3C//DTD SVG 1.1//EN" "http://www.w3.org/Graphics/SVG/1.1/DTD/svg11.dtd">
<svg version="1.1" id="图层_1" xmlns="http://www.w3.org/2000/svg" xmlns:xlink="http://www.w3.org/1999/xlink" x="0px" y="0px"
	 width="960px" height="560px" viewBox="0 0 960 560" enable-background="new 0 0 960 560" xml:space="preserve">
<g>
	<g>
		<path fill="#201D1E" d="M246.842,265.576c-4.395-1.218-8.869-2.217-13.155-3.736c-2.659-0.943-5.051-2.642-7.506-4.095
			c-0.311-0.184-0.276-0.938-0.515-1.872c1.292-0.373,2.478-0.715,3.663-1.058c0.327,0.267,0.655,0.534,0.982,0.802
			c-0.482,0.35-0.965,0.701-1.438,1.045c0.728,0.795,1.366,1.492,2.004,2.188c0.769,0.22,1.537,0.44,2.306,0.66
			c1.076,0.508,2.152,1.017,3.227,1.525c1.887,0.715,3.774,1.431,5.661,2.146c2.467,0.535,4.935,1.07,7.402,1.605
			C248.596,265.049,247.719,265.312,246.842,265.576z"/>
		<path fill="#161414" d="M291.502,254.601c1.532,0.339,3.124,0.519,4.578,1.061c1.585,0.591,1.72,2.146,0.203,2.876
			c-5.645,2.716-11.209,5.706-17.62,6.375c-0.363-0.303-0.726-0.606-1.09-0.909c2.473-0.763,4.947-1.525,7.42-2.288
			c1.916-0.733,3.833-1.466,5.749-2.199c0.486-0.288,0.971-0.575,1.457-0.863c0.719-0.398,1.438-0.795,2.487-1.376
			c-1.581-0.738-2.801-1.307-4.021-1.876C290.944,255.135,291.223,254.868,291.502,254.601z"/>
		<path fill="#171313" d="M277.573,264.005c0.363,0.303,0.726,0.606,1.09,0.909c-2.578,0.485-5.136,1.209-7.736,1.412
			c-8.046,0.627-16.099,0.822-24.085-0.75c0.877-0.264,1.754-0.527,2.632-0.791C258.882,266.02,268.239,265.416,277.573,264.005z"/>
		<path fill="#333333" d="M229.976,254.641c4.948-1.594,9.96-2.753,15.226-2.172c-0.021,0.224-0.013,0.446,0.023,0.668
			c-4.526,0.712-9.052,1.425-13.578,2.137C231.09,255.064,230.533,254.853,229.976,254.641z"/>
		<path fill="#424242" d="M266.037,252.459c5.506,0.023,11.012,0.047,16.518,0.07c-0.547,0.24-1.094,0.479-1.641,0.719
			c-4.953-0.078-9.906-0.156-14.859-0.234C266.016,252.83,266.01,252.645,266.037,252.459z"/>
		<path fill="#6D6D6D" d="M280.914,253.249c0.547-0.24,1.094-0.479,1.641-0.719c2.982,0.691,5.965,1.381,8.947,2.072
			c-0.279,0.267-0.558,0.534-0.836,0.801C287.415,254.684,284.164,253.966,280.914,253.249z"/>
		<path fill="#525252" d="M245.225,253.138c-0.036-0.222-0.044-0.444-0.023-0.668c3.177-0.002,6.354-0.003,9.531-0.005
			c0,0.18-0.003,0.361-0.006,0.541C251.56,253.05,248.392,253.094,245.225,253.138z"/>
		<path fill="#B3B3B3" d="M266.037,252.459c-0.027,0.186-0.021,0.371,0.017,0.555c-2.456-0.005-4.913-0.01-7.369-0.015
			c0.021-0.169,0.022-0.339,0.003-0.508C261.138,252.481,263.588,252.47,266.037,252.459z"/>
		<path fill="#858585" d="M258.688,252.492c0.019,0.169,0.018,0.339-0.003,0.508c-1.32,0.002-2.639,0.004-3.959,0.006
			c0.004-0.18,0.006-0.361,0.006-0.541C256.052,252.474,257.37,252.483,258.688,252.492z"/>
		<path fill="#060606" d="M229.976,254.641c0.557,0.211,1.114,0.423,1.672,0.634c-0.445,0.114-0.891,0.227-1.336,0.341
			c-0.327-0.267-0.655-0.534-0.982-0.802C229.51,254.632,229.726,254.575,229.976,254.641z"/>
		<path fill="#FDB2BC" d="M277.573,264.005c-9.334,1.411-18.691,2.015-28.1,0.78c-2.467-0.535-4.935-1.07-7.402-1.605
			c1.327-2.253,2.655-4.505,3.982-6.758c0.23-0.095,0.469-0.16,0.715-0.197c2.439-0.21,4.878-0.42,7.317-0.63
			c7.128,0.173,14.255,0.346,21.383,0.52c0.816,0.025,1.632,0.05,2.448,0.075c0.488,0.071,0.976,0.142,1.464,0.213
			c1.169,0.785,2.453,1.449,3.472,2.393c0.872,0.807,1.439,1.934,2.141,2.92C282.52,262.48,280.046,263.242,277.573,264.005z"/>
		<path fill="#E69AA9" d="M246.053,256.423c-1.327,2.253-2.655,4.505-3.982,6.758c-1.887-0.715-3.774-1.431-5.661-2.146
			c1.9-1.312,3.8-2.625,5.7-3.937C243.424,256.872,244.738,256.648,246.053,256.423z"/>
		<path fill="#76515E" d="M246.053,256.423c-1.314,0.225-2.629,0.449-3.943,0.674c-2.976,0.804-5.951,1.608-8.927,2.412
			c-0.769-0.22-1.537-0.44-2.306-0.66c4.792-2.119,9.767-3.459,15.058-3.451c0.278,0.276,0.555,0.552,0.833,0.828
			C246.522,256.263,246.283,256.328,246.053,256.423z"/>
		<path fill="#924564" d="M233.183,259.509c2.976-0.804,5.951-1.608,8.927-2.412c-1.9,1.312-3.8,2.625-5.7,3.937
			C235.334,260.526,234.259,260.018,233.183,259.509z"/>
		<path fill="#AA6179" d="M282.645,255.614c0.544,0.187,1.088,0.373,1.632,0.56c-0.093,0.093-0.217,0.172-0.27,0.284
			c-0.049,0.105-0.063,0.34-0.025,0.356c2.249,0.912,4.505,1.807,6.76,2.704c-1.916,0.733-3.833,1.466-5.749,2.199
			c-0.702-0.986-1.269-2.113-2.141-2.92c-1.019-0.943-2.303-1.607-3.472-2.393C280.468,256.141,281.556,255.877,282.645,255.614z"/>
		<path fill="#59494C" d="M290.742,259.518c-2.255-0.897-4.511-1.792-6.76-2.704c-0.038-0.015-0.024-0.251,0.025-0.356
			c0.053-0.112,0.177-0.191,0.27-0.284c2.641,0.827,5.281,1.654,7.922,2.481C291.713,258.942,291.228,259.23,290.742,259.518z"/>
		<path fill="#7A6F70" d="M251.65,254.836c7.431,0.004,14.861,0.008,22.292,0.012c0.509,0.423,1.017,0.845,1.526,1.268
			c-7.128-0.173-14.255-0.346-21.383-0.52C253.274,255.343,252.462,255.089,251.65,254.836z"/>
		<path fill="#A08588" d="M251.65,254.836c0.812,0.253,1.624,0.507,2.435,0.76c-2.439,0.21-4.878,0.42-7.317,0.63
			c-0.278-0.276-0.555-0.552-0.833-0.828C247.84,255.211,249.745,255.023,251.65,254.836z"/>
		<path fill="#645659" d="M275.468,256.116c-0.509-0.423-1.017-0.845-1.526-1.268c1.605,0.193,3.209,0.387,4.814,0.58
			c-0.28,0.254-0.56,0.509-0.84,0.763C277.1,256.166,276.284,256.141,275.468,256.116z"/>
		<path fill="#32282B" d="M277.917,256.191c0.28-0.254,0.56-0.509,0.84-0.763c1.296,0.062,2.592,0.124,3.888,0.186
			c-1.088,0.263-2.176,0.527-3.264,0.79C278.892,256.333,278.404,256.262,277.917,256.191z"/>
	</g>
</g>
</svg>
