<?xml version="1.0" encoding="utf-8"?>
<!-- Generator: Adobe Illustrator 17.0.0, SVG Export Plug-In . SVG Version: 6.00 Build 0)  -->
<!DOCTYPE svg PUBLIC "-//W3C//DTD SVG 1.1//EN" "http://www.w3.org/Graphics/SVG/1.1/DTD/svg11.dtd">
<svg version="1.1" id="图层_1" xmlns="http://www.w3.org/2000/svg" xmlns:xlink="http://www.w3.org/1999/xlink" x="0px" y="0px"
	 width="960px" height="560px" viewBox="0 0 960 560" enable-background="new 0 0 960 560" xml:space="preserve">
<g>
	<g>
		<path d="M209.126,142.937c-1.792-1.263-3.212-2.119-4.463-3.174c-2.935-2.475-6.722-3.083-10.033-4.723
			c-0.301-0.149-0.729-0.046-1.099-0.055c-3.742-0.096-7.438,0.716-10.919,1.711c-3.013,0.862-5.601,3.206-8.633,5.05
			c0-1.049,0.083-2.017-0.018-2.966c-0.188-1.775-0.577-3.532-0.705-5.309c-0.125-1.738,0.567-3.826-0.179-5.154
			c-0.907-1.613-0.023-3.329-1.113-4.822c-0.907-1.243,0.126-2.984-0.751-4.552c-0.763-1.363-0.557-3.233-1.013-4.811
			c-0.738-2.551-1.668-5.046-2.516-7.565c-1.868-5.546-5.415-10.225-7.986-15.409c-0.521-1.051-1.423-1.93-2.224-2.822
			c-3.288-3.66-6.006-7.899-10.493-10.35c-1.34-0.732-1.324-0.764-2.296-2.687c0.341-0.106,0.714-0.366,0.981-0.283
			c3.016,0.935,6.217,0.97,9.205,2.174c3.743,1.508,7.623,2.622,11.25,4.49c3.854,1.984,7.52,4.22,11.097,6.649
			c4.682,3.179,8.964,6.876,12.536,11.191c4.57,5.521,9.115,11.136,11.989,17.842c1.827,4.264,3.61,8.487,4.608,13.092
			c0.717,3.31,1.94,6.514,2.152,9.951c0.018,0.297,0.487,0.542,0.603,0.863C209.211,141.566,209.126,141.934,209.126,142.937z"/>
		<path d="M119.655,74.818c-2.304,2.741-4.307,5.567-7.237,7.526c-1.845,1.234-3.128,3.353-4.547,5.167
			c-1.532,1.958-3.059,3.942-4.358,6.056c-3.217,5.236-5.983,10.713-7.803,16.603c-1.029,3.331-1.568,6.833-2.812,10.072
			c-0.822,2.14-0.133,4.36-0.946,6.344c-0.844,2.058-0.188,4.131-0.471,6.172c-0.398,2.873-1.262,5.701-0.453,9.034
			c-2.147-1.036-3.95-1.626-5.32-3.146c-0.591-0.656-1.532-1.092-2.396-1.388c-2.753-0.943-5.629-1.451-8.431-2.234
			c-0.624-0.174-1.398,0.16-2.096,0.295c-0.572,0.111-1.149,0.438-1.697,0.386c-3.903-0.366-7.002,1.76-10.223,3.361
			c-1.585,0.788-2.877,2.164-4.467,3.403c-0.083-1.376-0.496-2.637,0.421-4.062c0.458-0.712,0.054-1.935,0.197-2.903
			c0.135-0.912,0.495-1.788,0.722-2.689c0.906-3.598,1.895-7.145,3.319-10.606c2.136-5.193,4.674-10.113,7.91-14.701
			c1.304-1.849,2.474-3.776,4.038-5.443c1.746-1.861,3.215-4.004,5.079-5.728c3.381-3.128,6.938-6.07,10.49-9.006
			c0.68-0.562,1.781-0.595,2.513-1.118c3.713-2.651,7.635-4.915,11.886-6.572c4.107-1.601,8.284-2.998,12.61-3.906
			C116.945,75.451,118.298,75.125,119.655,74.818z"/>
		<path d="M135.332,142.456c-0.353-0.353-0.707-0.707-0.993-0.993c0-21.899,0-43.73,0-65.454c0.371-0.371,0.636-0.636,0.963-0.963
			c0.241,0.204,0.465,0.45,0.737,0.616c1.892,1.159,3.827,2.251,5.684,3.463c3.167,2.066,8.301,8.058,11.467,11.233
			c3.562,3.572,5.298,8.131,7.925,12.175c1.847,2.844,2.563,6.408,3.803,9.641c1.2,3.128,1.503,6.567,2.987,9.636
			c0.147,0.305,0.045,0.727,0.076,1.092c0.247,2.895,0.081,5.909,0.86,8.654c0.87,3.065,0.386,6.062,0.662,9.026
			c-0.407,0.407-0.761,0.761-1.114,1.114C158.564,132.798,143.909,133.358,135.332,142.456z"/>
		<path d="M129.665,74.855c0,22.759,0,45.074,0,67.918c-1.768-1.695-3.116-3.345-5.153-4.055c-1.959-0.683-3.859-1.627-5.693-2.504
			c-2.102-1.006-4.482,0.553-6.241-1.231c-2.019,0.25-4.092,0.293-6.04,0.807c-1.99,0.525-3.969,1.322-5.75,2.351
			c-1.814,1.048-3.38,2.524-5.579,4.217c0.373-4.415-0.6-8.131,0.698-11.884c0.501-1.449-0.44-3.486,0.221-4.768
			c0.738-1.43,0.146-3.155,1.361-4.319c-0.081-3.38,1.509-6.375,2.335-9.531c0.93-3.553,2.129-7.152,3.923-10.329
			c1.717-3.04,3.618-6.044,5.705-8.89c2.696-3.676,7.335-7.919,11.017-11.146C123.271,79.034,126.361,77.095,129.665,74.855z"/>
		<path d="M145.106,202.475c4.408-1.272,5.352-4.819,5.747-8.852c0.835-0.523,1.732-1.085,2.798-1.753
			c0.927,0.528,1.936,1.102,2.867,1.632c0.839,3.527-0.483,6.559-2.143,9.189c-1.437,2.276-3.517,4.209-6.345,5.173
			c-4.082,1.392-7.799,1.549-11.529-1.139c-2.175-1.568-4.349-2.941-5.443-5.527c-0.594-1.403-1.03-2.815-1.368-4.312
			c-1.378-6.114-0.558-12.291-0.667-18.432c-0.154-8.614-0.039-17.232-0.037-25.849c0.266-0.265,0.531-0.53,0.951-0.949
			c1.765,1.021,3.626,0.81,5.797-0.589c0,1.14,0,1.842,0,2.544c0,13.363,0.03,26.725-0.019,40.087
			c-0.014,3.885,1.109,6.921,5.111,8.264c0.211,0.071,0.355,0.342,0.525,0.514C142.609,202.475,143.857,202.475,145.106,202.475z"/>
		<path d="M129.838,60.91c1.108-0.404,2.077-0.757,3.156-1.15c0.616,0.782,1.146,1.455,1.917,2.434c0,2.591,0,5.657,0,8.885
			c-1.634,0-3.298,0-5.072,0C129.838,67.766,129.838,64.453,129.838,60.91z"/>
	</g>
</g>
</svg>
