<?xml version="1.0" encoding="utf-8"?>
<!-- Generator: Adobe Illustrator 17.0.0, SVG Export Plug-In . SVG Version: 6.00 Build 0)  -->
<!DOCTYPE svg PUBLIC "-//W3C//DTD SVG 1.1//EN" "http://www.w3.org/Graphics/SVG/1.1/DTD/svg11.dtd">
<svg version="1.1" id="图层_1" xmlns="http://www.w3.org/2000/svg" xmlns:xlink="http://www.w3.org/1999/xlink" x="0px" y="0px"
	 width="66.652px" height="95.218px" viewBox="0.766 0.821 66.652 95.218" enable-background="new 0.766 0.821 66.652 95.218"
	 xml:space="preserve">
<g>
	<g>
		<path fill="#FFFFFF" d="M67.418,96.039c-22.17,0-44.404,0-66.652,0c0-31.716,0-63.432,0-95.218c22.17,0,44.357,0,66.652,0
			C67.418,32.513,67.418,64.276,67.418,96.039z M33.402,13.515C31.254,26.36,25.875,37.441,17.496,47.08
			c-6.091,7.007-8.945,14.837-6.78,24.181c2.238,9.657,10.562,17.331,20.302,18.49c9.146,1.088,18.578-4.253,22.993-13.02
			c4.996-9.919,3.428-20.215-4.567-29.452C41,37.522,35.525,26.371,33.402,13.515z"/>
		<path d="M33.402,13.515C35.525,26.371,41,37.522,49.445,47.279c7.995,9.237,9.562,19.533,4.567,29.452
			c-4.415,8.767-13.847,14.107-22.993,13.02c-9.74-1.158-18.064-8.833-20.302-18.49c-2.165-9.343,0.688-17.174,6.78-24.181
			C25.875,37.441,31.254,26.36,33.402,13.515z M33.714,31.531c-2.3,9.523-7.172,17.36-13.256,24.603
			c-1.082,1.288-1.728,3.039-2.258,4.679c-2.745,8.503,2.058,17.932,10.502,20.796c7.773,2.636,16.58-1.828,19.549-9.987
			c2.461-6.763,0.333-12.417-3.652-18.118c-3.732-5.34-6.539-11.339-9.589-17.134C34.252,34.929,34.129,33.153,33.714,31.531z"/>
		<path fill="#FFFFFF" d="M33.714,31.531c0.415,1.622,0.538,3.397,1.296,4.838c3.05,5.796,5.857,11.794,9.589,17.134
			c3.985,5.701,6.113,11.355,3.652,18.118c-2.969,8.158-11.776,12.623-19.549,9.987C20.259,78.745,15.455,69.316,18.2,60.813
			c0.529-1.64,1.176-3.39,2.258-4.679C26.542,48.891,31.414,41.054,33.714,31.531z"/>
	</g>
</g>
</svg>
