<?xml version="1.0" encoding="utf-8"?>
<!-- Generator: Adobe Illustrator 17.0.0, SVG Export Plug-In . SVG Version: 6.00 Build 0)  -->
<!DOCTYPE svg PUBLIC "-//W3C//DTD SVG 1.1//EN" "http://www.w3.org/Graphics/SVG/1.1/DTD/svg11.dtd">
<svg version="1.1" id="图层_1" xmlns="http://www.w3.org/2000/svg" xmlns:xlink="http://www.w3.org/1999/xlink" x="0px" y="0px"
	 width="960px" height="560px" viewBox="0 0 960 560" enable-background="new 0 0 960 560" xml:space="preserve">
<g>
	<g>
		<path d="M16.116,25.214c-1.638-1.007-2.281-2.724-3.069-4.339c0.049-0.049,0.111-0.111,0.172-0.172
			c-0.227-0.207-0.453-0.414-0.751-0.685c0,0.369,0,0.694,0,1.033c-0.465-0.109-0.839-0.197-1.414-0.333
			c0.846,0.757,1.519,1.358,2.184,1.953c0,0.29,0,0.544,0,0.736c0.405,0.338,0.771,0.645,1.153,0.964
			c-0.344,0.341-0.603,0.598-0.911,0.904c-0.789-0.816-1.737-1.345-2.822-1.621c-0.438-0.381-1.008-0.441-1.528-0.497
			c-0.813-0.087-1.642-0.04-2.463-0.012c-0.229,0.008-0.453,0.146-0.786,0.261c-0.805-0.533-0.269-1.712-1.084-2.341
			c1.046-0.989,2.172-1.445,3.525-1.362c-1.076-0.291-2.542-0.264-3.599,0.018c0-1.079,0-2.149,0-3.271
			c0.937-0.804,2.154-0.56,3.542-0.606c-1.18-0.349-2.781-0.318-3.479-0.01c-0.252-0.549-0.526-0.998-0.162-1.716
			c0.279-0.549,0.055-1.353,0.055-2.1c0.414-0.042,0.907,0.043,1.213-0.157c0.43-0.28,0.833-0.09,1.237-0.164
			c0.401-0.074,0.705,0.542,1.232,0.135c-1.114-0.516-2.163-0.959-3.485-0.401c0.215-1.11,0.416-2.145,0.645-3.323
			c0.13-0.09,0.378-0.262,0.819-0.568c0.096,0,0.473,0,0.884,0c0.02-0.159,0.035-0.278,0.05-0.397
			c-0.507-0.04-0.497-0.569-0.813-0.857c0.276-0.522,0.557-1.055,0.884-1.675c0.972,0.116,1.92,0.229,3.017,0.36
			c0.244,0.296,0.571,0.691,0.841,1.018c0.307,0,0.477,0,0.641,0c0.041,0.083,0.107,0.155,0.107,0.227
			c0.006,0.761-0.306,1.914-0.621,2.336c-0.451-0.252-0.893-0.686-1.357-0.712c-0.64-0.035-0.831-0.409-0.997-0.867
			C8.478,7.241,8.06,7.465,7.548,7.737c1.103,0.017,2.154,0.194,3.12,1.052c0,0.333,0,0.832,0,1.579
			c0.199-0.41,0.279-0.575,0.361-0.744c0.177,0,0.348,0,0.798,0c0.282,0.308,0.7,0.764,1.23,1.342
			c-0.282-1.06-1.152-1.746-1.094-2.854c0.732-0.103,1.426-0.126,2.111,0.34c0.277,0.189,0.586,0.482,1.003,0.386
			c0.087,0.087,0.173,0.173,0.26,0.26c0.564,0.568,1.307,0.525,1.949,0.519c0.162,0.162,0.254,0.254,0.368,0.368
			c0,0.355,0,0.732,0,1.099c-0.208,0.086-0.392,0.163-0.619,0.257c-0.342-0.198-0.752-0.27-1.239-0.012
			c0.571,0.217,1.094,0.416,1.691,0.644c0.18-0.157,0.398-0.346,0.624-0.543c0.195,0.012,0.398,0.024,0.716,0.044
			c-0.153,0.286-0.245,0.459-0.374,0.701c0.236,0.017,0.471,0.033,0.704,0.05c0.229-0.358,0.427-0.669,0.596-0.935
			c0.594-0.348,0.863,0.132,1.262,0.473c0-0.397,0-0.686,0-0.979c0.901-0.549,1.769-1.079,2.739-1.671
			c0.807,0.864,0.218,2.086,0.638,3.109c0.025-0.409,0.049-0.818,0.081-1.337c0.333,0.071,0.631,0.135,0.952,0.204
			c0,0.437,0,0.758,0,1.154c-1.203,0.5-2.443,0.848-3.807,1.07c-0.011,0.111-0.032,0.27-0.04,0.43
			c-0.008,0.164-0.002,0.328-0.002,0.533c0.132-0.052,0.192-0.074,0.251-0.099c0.408-0.175,0.763-0.445,1.265-0.414
			c0.627,0.038,1.535-0.315,2.268-0.75c0.092,0.092,0.184,0.184,0.375,0.375c0,0.146,0,0.392,0,0.639c0,0.217,0,0.433,0,0.65
			c-0.425,0.228-0.85,0.456-1.27,0.682c-0.025,0.552-0.047,1.05-0.072,1.628c-0.802-0.41-1.501-0.767-2.232-1.141
			c-0.04,0.189-0.064,0.307-0.108,0.518c-0.386,0-0.794,0-1.335,0c0.451,0.625,0.975,0.767,1.588,0.831
			c0.033,0.227,0.069,0.465,0.108,0.732c0.663-0.404,1.262-0.736,2.046-0.283c0.234,0.136,0.72,0.171,1.09-0.131
			c0.19-0.155,0.56-0.087,0.854-0.121c0.328,0.845-0.035,1.575-0.23,2.307c-0.197-0.077-0.396-0.154-0.708-0.276
			c0.262,0.472,0.446,0.806,0.623,1.126c-0.692,0.821-1.497,0.876-2.351,0.712c-0.355-0.068-0.697-0.204-1.148-0.341
			c0-0.856,0-1.787,0-2.718c-0.061,0-0.122,0-0.183,0c0,0.663,0,1.325,0,1.808c-0.227,0.285-0.333,0.419-0.464,0.583
			c-0.811-0.407-1.599-0.801-2.443-1.224c0-0.33,0-0.708,0-1.086c-0.051-0.014-0.101-0.029-0.152-0.043
			c-0.037,0.1-0.084,0.198-0.109,0.301c-0.036,0.147-0.055,0.298-0.11,0.616c-0.428-0.371-0.741-0.642-1.068-0.926
			c-0.259,0-0.55,0-0.867,0c0.038,0.098,0.044,0.182,0.087,0.213c0.5,0.356,1.013,0.695,1.507,1.059
			c0.112,0.083,0.168,0.242,0.323,0.477c1.122-0.279,1.728,1.125,2.986,1.098c0,0.52,0,1.029,0,1.538
			c-0.173,0.249-0.419,0.476-0.504,0.752c-0.155,0.501-0.213,1.032-0.327,1.63c-0.384-0.274-0.696-0.518-1.031-0.723
			c-0.131-0.08-0.316-0.069-0.477-0.1c-0.01-0.197-0.058-0.317-0.26-0.13c-0.202,0.187-0.25,0.067-0.26-0.13
			c0-0.161,0-0.321,0-0.469c0.32-0.048,0.548-0.082,0.776-0.116c-0.001-0.051-0.002-0.102-0.003-0.152
			c-0.609-0.031-1.219-0.061-1.869-0.094c0.755-1.637,0.828-1.92,0.66-2.525c-0.235,0.614-0.463,1.211-0.68,1.778
			c-1.723-0.8-2.6-2.306-3.441-3.878c-0.298,0.387-0.597,0.775-0.892,1.167c-0.005,0.007,0.05,0.058,0.088,0.101
			c0.193,0.021,0.397,0.043,0.585,0.064c0.935,0.935,1.849,1.858,2.779,2.766c0.103,0.101,0.296,0.111,0.437,0.16
			c0,0.247,0,0.464,0,0.681c-0.608,0.097-0.415,0.718-0.594,0.994c-0.205,0.059-0.319,0.093-0.407,0.118
			c-0.04,0.258-0.074,0.476-0.115,0.737c-0.163-0.132-0.249-0.202-0.342-0.278C16.176,25.067,16.146,25.141,16.116,25.214z"/>
		<path d="M14.993,49.35c-0.502,0.585-1.211,0.557-1.927,0.568c-0.573,0.009-1.144,0.097-1.836,0.162
			c-0.011-0.01-0.135-0.125-0.289-0.269c-0.019-0.383-0.039-0.793-0.06-1.203c-0.059,0-0.118-0.001-0.176-0.001
			c-0.026,0.493-0.051,0.987-0.083,1.59c-0.963-0.277-1.843,0.446-2.82,0.169c0.104-0.423,0.195-0.796,0.286-1.168
			c-0.041-0.011-0.082-0.023-0.123-0.034c-0.173,0.252-0.346,0.503-0.546,0.794c-0.861-0.421-1.741-0.708-2.233-1.642
			c-0.739-1.402-0.589-2.738,0.03-4.144C6.943,44.232,8,45.397,9.252,46.222c0.118-0.237,0.258-0.516,0.454-0.909
			c-1.722-0.316-2.849-1.684-4.507-2.237c-0.034-0.884,0.271-1.73,0.443-2.605c0.166-0.841,0.054-1.736,0.543-2.654
			c1.039-0.447,2.159-0.99,3.326-1.4c0.461-0.162,1.027-0.027,1.69-0.027c0.182,0.222,0.425,0.519,0.657,0.801
			c0.484-0.215,0.923-0.409,1.253-0.556c1.298,0.747,2.488,1.432,3.768,2.169c0,0.441,0,0.936,0,1.611
			c0.366-0.679,0.636-1.181,0.906-1.681c0.182,0,0.353,0,0.533,0c0.179,0.17,0.364,0.346,0.605,0.576
			c0.225-0.169,0.453-0.339,0.748-0.56c1.258-0.091,2.573-0.076,3.746,0.882c-0.092,0.585-0.224,1.187-0.272,1.796
			c-0.048,0.602-0.01,1.21-0.01,1.916c-0.398,0.229-0.838,0.482-1.304,0.75c0.169,0.061,0.319,0.115,0.494,0.178
			c0.11,0.678-0.104,1.407,0.27,2.078c0.091,0.163-0.053,0.475-0.127,0.707c-0.06,0.188-0.242,0.353-0.258,0.538
			c-0.096,1.134-0.995,1.136-1.776,1.261c-0.486,0.078-0.993-0.068-1.463,0.249c-0.127,0.086-0.435-0.095-0.654-0.152
			C17.245,49.144,16.287,50.135,14.993,49.35z"/>
		<path d="M21.471,48.955c0.248,0.837,0.441,1.486,0.653,2.199c-0.253,0-0.454,0-0.64,0c-0.136,0.26-0.246,0.471-0.343,0.657
			c0.074,0.257,0.149,0.518,0.242,0.842c-1.259,0.212-1.098,1.686-2.033,2.147c-0.13-0.115-0.259-0.229-0.4-0.355
			c0.109-0.467,0.557-0.894,0.101-1.496c-0.157,0.562-0.295,1.058-0.394,1.413c-0.143-0.131-0.373-0.344-0.719-0.663
			c0.038-0.107,0.148-0.409,0.296-0.82c-0.139-0.078-0.325-0.182-0.518-0.29c-0.445,0.395-0.635,1.009-0.542,1.758
			c-0.491-0.137-0.871-0.242-1.253-0.349c-0.184-0.86-0.184-0.86-1.042-0.985c-0.198-0.39,0.19-1.073-0.603-1.299
			c-0.43,0.206-0.936,0.448-1.402,0.672c-0.551-0.266-1.145-0.552-1.86-0.897c0.995-0.647,1.93-1.052,2.928-1.32
			c0.352-0.095,0.703-0.211,1.062-0.251c0.385-0.044,0.819,0.097,1.16-0.031c0.8-0.302,1.678-0.032,2.405-0.287
			C19.496,49.274,20.503,49.675,21.471,48.955z"/>
		<path d="M19.487,29.741c0.555-1.234,1.109-2.467,1.675-3.726c0.319,0,0.658,0,1.004,0c0.439,0.247,0.885,0.519,1.35,0.754
			c0.49,0.249,1.012,0.38,1.612,0.193c0.401,1.791-0.777,3.038-1.3,4.481C22.286,31.079,20.852,30.511,19.487,29.741z"/>
		<path d="M22.441,21.828c1.184,0.119,2.307,0.231,3.508,0.352c0.052,0.052,0.174,0.174,0.269,0.269
			c0.211,1.046-0.199,1.998-0.328,2.98c-0.05,0.38-0.287,0.736-0.476,1.191c-1.254-0.423-2.424-0.817-3.55-1.197
			C21.69,24.149,22.124,23.044,22.441,21.828z"/>
		<path d="M19.235,23.914c0.01,0.197,0.058,0.317,0.26,0.13c0.202-0.187,0.25-0.067,0.26,0.13c0.358,0.493,0.716,0.987,1.125,1.549
			c-0.962,0.946-1.321,2.19-1.722,3.421c-1.518-0.971-2.579-2.221-3.042-3.93c0.03-0.073,0.06-0.147,0.101-0.249
			c0.094,0.076,0.18,0.146,0.342,0.278c0.041-0.26,0.075-0.479,0.115-0.737c0.087-0.025,0.202-0.058,0.407-0.118
			c0.179-0.276-0.014-0.896,0.594-0.994C18.294,23.273,18.719,23.732,19.235,23.914z"/>
		<path d="M10.593,23.664c0.211,0.245,0.398,0.464,0.594,0.692c-0.013,0.161-0.005,0.336-0.048,0.496
			c-0.026,0.096-0.132,0.171-0.26,0.323c0.286,0,0.488,0,0.649,0c0.076,0.076,0.133,0.106,0.133,0.138
			c0.006,0.377,0.004,0.754,0.004,1.166c-0.278,0-0.528,0-0.949,0c-0.098-0.169-0.271-0.468-0.444-0.767
			c-0.063,0.044-0.126,0.089-0.188,0.133c0-0.289,0-0.577,0-0.866c-0.354,0.582-0.156,1.144,0.114,1.771
			c-0.976,0.051-1.85,0.099-2.682-0.244c-0.333-0.137-0.657-0.334-0.926-0.571c-0.205-0.181-0.359-0.451-0.458-0.711
			c-0.112-0.297-0.137-0.627-0.203-0.962c0.948-0.626,2.059-0.422,2.966-1.011c0.212,0.3,0.36,0.51,0.518,0.733
			C9.797,23.475,10.259,23.72,10.593,23.664z"/>
		<path d="M6.51,52.647c-0.494-0.078-0.851-0.134-1.237-0.195c-0.128-0.786-0.261-1.598-0.407-2.495
			c1.159-0.132,1.724,0.759,2.531,1.157c1.025-0.349,2.116-0.073,3.227-0.189c0,0.373,0,0.662,0,0.964
			c-1.506,1.142-2.525,1.175-3.719,0.114C6.761,52.236,6.618,52.469,6.51,52.647z"/>
		<path d="M19.495,8.578c0.025-0.812-0.38-1.478-0.735-2.283c0.202-0.118,0.455-0.266,0.669-0.392
			c0.727,0.406,0.967,1.022,1.199,1.671c0.476-0.107,0.805-0.335,1.192-0.781c0.447,0,1.084,0,1.724,0
			c0.081,0.732,0.081,0.732-0.674,1.15c0,0.169,0,0.341,0,0.631c-0.239-0.066-0.444-0.122-0.72-0.198
			C22.131,8.51,22.104,8.7,22.072,8.92c-0.285,0.356-0.593,0.74-0.927,1.159c-0.332-0.212-0.731-0.466-1.13-0.721
			C19.842,9.098,19.669,8.838,19.495,8.578z"/>
		<path d="M15.336,9.098c-0.087-0.087-0.173-0.173-0.26-0.26c-0.298-0.453-0.601-0.867-1.166-1.068
			C13.626,7.669,13.43,7.321,13.1,6.991c0.51-0.271,0.919-0.488,1.416-0.752c1.072-0.053,2.097,0.271,2.9,1.171
			c0,0.431,0,0.863,0,1.345C16.626,8.327,16.007,8.848,15.336,9.098z"/>
		<path d="M16.617,5.278c-0.129,0.247-0.242,0.462-0.403,0.771c-1.017-0.115-2.082-0.236-3.169-0.359c0-0.778,0-1.527,0-2.378
			c0.214,0.093,0.377,0.123,0.484,0.217c1.221,1.066,1.219,1.069,2.751,0.403C16.396,4.398,16.513,4.864,16.617,5.278z"/>
		<path d="M19.495,8.578c0.173,0.26,0.347,0.52,0.52,0.78c0.099,0.388,0.197,0.776,0.289,1.138c-0.729,0.553-1.517,0.42-2.313,0.404
			c-0.208-1.005,0.203-2.044-0.352-3.02C18.498,7.562,18.845,8.487,19.495,8.578z"/>
	</g>
</g>
</svg>
